<svg version="1.2" xmlns="http://www.w3.org/2000/svg" viewBox="0 0 1200 1200" width="1200" height="1200">
	<style>
		.s0 { fill: #112240 } 
		.s1 { fill: #f8fafc } 
		.s2 { fill: #0f172a } 
		.s3 { fill: #3b82f6 } 
		.s4 { fill: #ffffff } 
	</style>
	<g id="Logo_Blue">
		<path id="Blue BG" fill-rule="evenodd" class="s0" d="m1200 0v1200h-1200v-1200z"/>
		<g id="Logo">
			<g id="Graph">
				<path id="Y Axis" fill-rule="evenodd" class="s1" d="m128.59 140.03l10.35-0.03 3.11 919.58-10.36 0.04z"/>
				<path id="X Axis" fill-rule="evenodd" class="s1" d="m82 980.77l0.02-9.52 1035.57 2.63-0.03 9.51z"/>
			</g>
			<g id="ANALYTICS">
				<path id="ANALYTICS_bar" fill-rule="evenodd" class="s1" d="m174.76 725.58h804.45c6.63 0 12 5.37 12 12v174.83c0 6.63-5.37 12-12 12h-804.45c-6.63 0-12-5.37-12-12v-174.83c0-6.63 5.37-12 12-12z"/>
				<path id="ANALYTICS" class="s2" aria-label="ANALYTICS"  d="m236.2 794.4l21.1 63.6h-12.5l-5.1-16.2h-22.5l-5.1 16.2h-12.2l21.3-63.6zm-16.1 37.1h16.7l-5.1-16.1-3.1-10h-0.4l-3 10zm99 26.5h-13.2l-19.2-32.7-6.5-13.1h-0.3v13.5 32.3h-11.4v-63.6h13.3l19.1 32.6 6.6 13.2h0.3v-13.6-32.2h11.3zm47.2-63.6l21.1 63.6h-12.5l-5.1-16.2h-22.6l-5 16.2h-12.2l21.3-63.6zm-16.2 37.1h16.8l-5.1-16.1-3.1-10.1h-0.4l-3 10.1zm85.5 15.8v10.7h-37.1v-63.7h12v53zm32.3-14.4v25.1h-12.1v-25l-21.8-38.7h13.5l14.6 26.9h0.2l14.3-26.9h13.2zm75.7-38.5v10.7h-18.1v53h-12v-53h-18.1v-10.7zm37.1 54v9.7h-28.9v-9.7h8.5v-44.3h-8.5v-9.7h28.9v9.7h-8.4v44.3zm38.5 10.7q-8.4 0-14.6-3.6-6.1-3.7-9.5-10.8-3.3-7.3-3.3-18 0-10.7 3.3-18.1 3.4-7.5 9.5-11.3 6.2-3.9 14.6-3.9 8.5 0 14.1 3.6 5.8 3.6 9.1 11l-10.2 5.5q-1.4-4.3-4.6-6.8-3.1-2.7-8.4-2.7-6.7 0-10.8 4.7-3.9 4.5-3.9 12.7v10q0 8.1 3.9 12.6 4.1 4.5 10.8 4.5 5.4 0 8.7-2.8 3.4-3 5-7.3l9.8 5.7q-3.4 7.1-9.2 11.1-5.8 3.9-14.3 3.9zm56 0q-8.1 0-13.9-2.9-5.7-2.9-9.7-7.6l8.1-7.9q3.2 3.9 7.3 6 4 1.8 9 1.8 5.6 0 8.4-2.4 2.8-2.4 2.8-6.5 0-2.1-0.8-3.7-0.8-1.6-2.7-2.6-1.9-1.2-5.2-1.7l-6-1q-6.4-1-10.6-3.3-4.2-2.4-6.3-6.2-2.1-3.8-2.1-9 0-5.7 2.7-9.8 2.9-4.3 8-6.6 5.2-2.3 12.3-2.3 7.2 0 12.6 2.4 5.4 2.4 9.2 6.9l-8.2 7.8q-2.4-2.9-5.8-4.7-3.4-1.9-8.5-1.9-5 0-7.8 2-2.5 1.9-2.5 5.5 0 2.4 0.9 4 1 1.5 2.8 2.5 2.1 0.8 5.1 1.4l6 1.1q6.5 1.1 10.6 3.5 4.2 2.3 6.2 6.1 2.1 3.7 2.1 8.9 0 6-2.9 10.6-2.7 4.5-8.1 7.1-5.4 2.5-13 2.5z"/>
			</g>
			<g id="Data">
				<path id="DATA_bar" fill-rule="evenodd" class="s3" d="m174.76 507.18h493.78c6.63 0 12 5.37 12 12v174.83c0 6.63-5.37 12-12 12h-493.78c-6.63 0-12-5.37-12-12v-174.83c0-6.63 5.37-12 12-12z"/>
				<path id="DATA" class="s4" aria-label="DATA"  d="m224.4 642h-17.5v-10.8h16.9q7.3 0 12.1-2.6 4.9-2.7 7.4-8 2.4-5.3 2.4-13.3 0-8-2.5-13.3-2.4-5.3-7.2-7.9-4.8-2.7-11.9-2.7h-17.6v-10.7h18.4q10.3 0 17.7 4.2 7.4 4.1 11.4 11.9 4 7.7 4 18.5 0 10.8-4 18.6-4 7.8-11.5 12-7.5 4.1-18.1 4.1zm-23.4-69.3h12.4v69.3h-12.4zm75.9 69.3h-13.6l24.2-69.3h15.8l24.7 69.3h-13.6l-12.3-36q-1.8-5.6-3.8-12.6-2-7.1-4.3-16.1h2.6q-2.3 9.1-4.2 16.2-1.9 7.1-3.6 12.5zm37-17.2h-36.5v-10h36.5zm35.4-41.6h-21.4v-10.5h55.2v10.5h-21.4v58.8h-12.4zm46.6 58.9h-13.6l24.2-69.3h15.8l24.7 69.3h-13.6l-12.3-36q-1.8-5.6-3.8-12.6-1.9-7.1-4.3-16.1h2.6q-2.3 9.1-4.2 16.2-1.9 7.1-3.6 12.5zm37-17.2h-36.5v-10h36.5z"/>
			</g>
			<g id="SUN">
				<path id="SUN_bar" fill-rule="evenodd" class="s1" d="m174.76 286.92h390.23c6.62 0 12 5.37 12 12v174.82c0 6.63-5.38 12-12 12h-390.23c-6.63 0-12-5.37-12-12v-174.82c0-6.63 5.37-12 12-12z"/>
				<path id="SUN" class="s2" aria-label="SUN"  d="m225.2 419.1q-8.1 0-13.9-2.9-5.7-3-9.7-7.6l8.1-7.9q3.2 3.9 7.3 5.9 4 1.9 9 1.9 5.6 0 8.4-2.4 2.8-2.5 2.8-6.6 0-2.1-0.8-3.6-0.8-1.7-2.7-2.7-1.8-1.2-5.2-1.7l-6-0.9q-6.4-1.1-10.6-3.4-4.2-2.4-6.3-6.1-2.1-3.9-2.1-9 0-5.8 2.7-9.9 2.9-4.2 8-6.5 5.2-2.4 12.3-2.4 7.2 0 12.6 2.5 5.4 2.3 9.2 6.9l-8.2 7.7q-2.4-2.9-5.8-4.6-3.3-1.9-8.5-1.9-5 0-7.8 2-2.5 1.9-2.5 5.4 0 2.5 0.9 4.1 1 1.5 2.8 2.4 2.1 0.9 5.1 1.5l6 1q6.5 1.1 10.6 3.5 4.2 2.4 6.2 6.1 2.1 3.7 2.1 9 0 6-2.9 10.5-2.7 4.6-8.1 7.1-5.4 2.6-13 2.6zm36.9-27.2v-37.5h11.7v39.1q0 4.9 1.2 8.3 1.3 3.2 4.1 5 2.7 1.6 7.3 1.6 4.6 0 7.2-1.6 2.9-1.8 4-5 1.4-3.4 1.4-8.3v-39.1h11.8v37.5q0 9.4-2.5 15.4-2.3 6-7.7 9-5.3 2.8-14.3 2.8-8.9 0-14.3-2.8-5.2-3-7.6-9-2.3-6-2.3-15.4zm116 26.1h-13.3l-19.1-32.7-6.6-13.1h-0.3v13.5 32.3h-11.4v-63.6h13.3l19.1 32.6 6.6 13.2h0.3v-13.5-32.3h11.4z"/>
			</g>
		</g>
	</g>
</svg>